<svg xmlns="http://www.w3.org/2000/svg" xmlns:xlink="http://www.w3.org/1999/xlink" width="186px" height="53px" viewBox="0 0 186 53"><title>logo-edit</title><g id="Visual-Design-Content" stroke="none" stroke-width="1" fill="none" fill-rule="evenodd"><g id="About-Us-V2" transform="translate(-125.000000, -108.000000)"><g id="logo-edit" transform="translate(125.000000, 108.000000)"><g id="#22409aff" transform="translate(32.752809, 0.000000)" fill="#22409A" fill-rule="nonzero"><path d="M110.236452,0.0128510814 C113.986705,-0.00751092815 117.736957,-0.000723591644 121.484945,0.0128510814 C121.498533,9.96534884 121.460034,19.9201091 121.505327,29.8748693 C126.863477,24.8861769 132.137836,19.8069868 137.480134,14.7979324 C141.873545,14.8001949 146.269222,14.7820953 150.664898,14.8069822 C150.048914,15.7210102 149.199672,16.4336805 148.445546,17.2255365 C143.961548,21.7662646 139.457169,26.2866307 135.047905,30.8974946 C140.888425,38.2210307 146.665534,45.5988655 152.449438,52.9699129 C147.933736,53.0061121 143.418033,52.9947998 138.904595,52.9767003 C134.921085,47.9404966 130.837929,42.981216 126.829507,37.9631119 C125.038173,39.6554212 123.298926,41.4110789 121.543826,43.1350623 C121.403418,46.408821 121.525708,49.7006792 121.48268,52.9812252 C117.734692,52.9947998 113.986705,52.9925374 110.238717,52.9834876 C110.236452,35.3251005 110.238717,17.6689758 110.236452,0.0128510814 Z" id="Path"></path><path d="M46.0767902,5.46534474 C49.7885436,5.46986963 53.5025617,5.46760719 57.2143151,5.46760719 C57.2233737,8.57620731 57.2165798,11.6870699 57.2188444,14.7979324 C60.3984062,14.8047198 63.577968,14.8047198 66.7575298,14.7979324 C66.8118813,17.6644509 66.7597945,20.5354942 66.7824409,23.4042751 C63.5938206,23.4540489 60.3938769,23.2911528 57.2097858,23.4902481 C57.2256384,28.6825605 57.2165798,33.8748729 57.2143151,39.0671853 C57.2233737,40.3590417 57.5064544,41.7459208 58.421371,42.7142475 C59.653338,44.0943392 61.7232236,44.3341585 63.4466186,43.9653798 C64.5766766,43.8205833 65.5708558,43.2481846 66.5718289,42.7481842 C67.4912749,45.3907205 68.5986864,47.9653835 69.5113384,50.6101823 C66.1302231,52.7843924 61.9361003,53.2730806 58.0069409,52.8703653 C54.8387023,52.5604103 51.5776133,51.4450247 49.3786429,49.0468324 C46.9532079,46.5332555 46.0903781,42.92013 46.0745256,39.517412 C46.0835841,34.180303 46.0541438,28.8454566 46.0881134,23.5106101 C44.1201368,23.2775782 42.1295137,23.4585738 40.1502138,23.4042751 C40.1705956,20.5377567 40.1343613,17.6712382 40.168331,14.8047198 C42.1385723,14.79567 44.1065489,14.8137696 46.0767902,14.7934075 C46.0699963,11.6848074 46.0722609,8.57394486 46.0767902,5.46534474 Z" id="Path"></path><path d="M9.86737868,16.0490648 C14.0818833,13.7164835 19.0799552,12.9563018 23.8266515,13.6237232 C28.0479501,14.2029093 32.1831921,16.0354901 35.1498773,19.1373029 C38.2886755,22.2323284 40.0007472,26.5468119 40.4378238,30.88392 C40.5080278,32.5603921 40.512557,34.2413891 40.4015894,35.9155987 C40.4672641,36.3454634 39.9803654,36.4517983 39.6610505,36.4065494 C30.2084215,36.404287 20.7557926,36.3929747 11.3008991,36.4133368 C11.7968564,38.9382259 13.4477827,41.2006714 15.6965753,42.4540662 C18.5160586,44.0988641 21.9288788,44.2232986 25.0903235,43.8092711 C27.6742836,43.417868 29.9955449,42.0739754 31.9182286,40.345467 C33.8771467,42.4721658 35.8519173,44.5875524 37.7859243,46.7368756 C36.0829111,48.877149 33.6755933,50.3907251 31.1550432,51.4043007 C27.461407,52.8567907 23.4144861,53.193895 19.4853267,52.8997771 C14.4623437,52.4857496 9.39859713,50.6825805 5.7366659,47.1282787 C2.77224538,44.3477331 0.863149511,40.5242002 0.263018543,36.5196717 C-0.364288168,32.5671794 0.127139833,28.4246417 1.77353687,24.7685298 C3.43125713,21.0875309 6.323209,17.9834557 9.86737868,16.0490648 M15.9887146,22.8748629 C13.3141686,24.1531446 11.4684828,26.9133281 11.1718143,29.843195 C17.0417746,29.8341452 22.9139995,29.8364077 28.7839597,29.843195 C29.2074484,29.8409326 29.630937,29.7888963 30.0498964,29.7345976 C29.7532279,28.6282618 29.4565594,27.5015639 28.8745455,26.501563 C27.5610513,24.0400223 24.9929437,22.3160388 22.2232827,21.9902467 C20.1194273,21.788889 17.9023397,21.8884366 15.9887146,22.8748629 Z" id="Shape"></path><path d="M74.4844991,18.6780265 C77.8157922,15.6011006 82.2544967,13.8499678 86.752082,13.485714 C91.1522876,13.0965734 95.7178122,13.9201036 99.5654443,16.1350377 C102.783505,17.9653561 105.390112,20.8250873 106.925541,24.1893437 C108.667053,27.9857273 109.153952,32.2866362 108.583261,36.4020245 C98.897374,36.4110743 89.2137513,36.3861874 79.5278639,36.4155992 C80.0532616,38.7821172 81.5320749,40.9133409 83.5770495,42.2187719 C85.4000888,43.3613069 87.5515017,43.9450178 89.70065,43.9857419 C91.3764874,44.021941 93.0862945,43.9970541 94.7055158,43.503841 C96.7618136,42.9337047 98.6369398,41.7911697 100.156517,40.3002181 C101.968233,42.2911702 103.793537,44.2730724 105.641487,46.2300878 C105.901922,46.4653821 106.151032,46.8794096 105.775101,47.1486407 C102.735948,50.4201369 98.3991521,52.2368806 94.014799,52.761768 C89.6870621,53.30023 85.207594,52.9495509 81.0904691,51.4676491 C77.2518955,50.0875574 73.7666066,47.5739804 71.4974322,44.1576877 C68.6575671,39.9970504 67.7607677,34.6938782 68.562452,29.7662719 C69.1920234,25.5400237 71.3094666,21.5468074 74.4844991,18.6780265 M83.133179,23.5377594 C81.0746166,24.9698874 79.7996213,27.2934189 79.3716034,29.7345976 C79.7928274,29.7866339 80.2140514,29.8386701 80.6398047,29.8409326 C86.5188235,29.8341452 92.3955777,29.8409326 98.2745966,29.8386701 C97.8533726,26.8228303 95.9420121,23.9834612 93.1134703,22.743641 C89.942967,21.3477122 86.0206016,21.5739567 83.133179,23.5377594 Z" id="Shape"></path></g><g id="#437bfeff" transform="translate(1.786517, 14.887640)"><path d="M0,0.0377892729 C4.2022264,-0.0297520316 8.40671449,0.024281012 12.6089409,0.00626999746 C13.4208888,-0.0792823215 13.8732275,0.731213332 14.422819,1.18374007 C19.0773841,5.56717073 23.7138556,9.97086379 28.366159,14.3565458 C28.5923284,14.6132028 29.0763308,14.8811166 28.7981425,15.2661021 C26.8214224,17.9384863 24.7316177,20.5343238 22.7752529,23.2247191 L22.6553831,23.098642 C21.1242167,21.491159 19.5546014,19.9174466 18.000818,18.3302259 C17.1798233,17.5197302 16.4402496,16.6214309 15.4926,15.9482692 C14.9769339,15.2706048 0.748620526,1.01263543 0,0.0377892729 Z" id="Path" fill="#437BFE" fill-rule="nonzero"></path><polygon id="Path-3" fill="#5E4BFF" points="15.7808989 16.2075019 22.3773397 8.63483146 29.2292597 15.0844048 22.7471412 23.2274922"></polygon></g><g id="#f3666fff" transform="translate(0.000000, 30.966292)" fill="#F3666F" fill-rule="nonzero"><path d="M17.4756576,0 C18.4186455,0.672449859 19.1545811,1.56979934 19.9715371,2.37943796 C21.5176771,3.96498027 23.079571,5.53702861 24.6032053,7.14281188 L24.4419,7.01999031 C20.6744498,11.922802 16.7979631,17.090122 13.0575197,22.0154236 C8.56763728,22.0334156 4.48988242,22.0401626 0,22.0154236 C4.98275673,15.7632143 17.0165419,0.510522134 17.4756576,0 Z" id="Path"></path></g></g></g></g></svg>